<mxfile host="app.diagrams.net" agent="Mozilla/5.0 (Windows NT 10.0; Win64; x64) AppleWebKit/537.36 (KHTML, like Gecko) Chrome/130.0.0.0 Safari/537.36" version="24.8.3">
  <diagram name="Page-1" id="JHxd9iFPN37QcHGsWdWP">
    <mxGraphModel dx="880" dy="2806" grid="1" gridSize="10" guides="1" tooltips="1" connect="1" arrows="1" fold="1" page="1" pageScale="1" pageWidth="827" pageHeight="1169" math="0" shadow="0">
      <root>
        <mxCell id="0" />
        <mxCell id="1" parent="0" />
        <mxCell id="8qSeLk364I0TMnnldrpM-7" value="" style="edgeStyle=orthogonalEdgeStyle;rounded=0;orthogonalLoop=1;jettySize=auto;html=1;" edge="1" parent="1" source="8qSeLk364I0TMnnldrpM-2" target="8qSeLk364I0TMnnldrpM-6">
          <mxGeometry relative="1" as="geometry">
            <Array as="points">
              <mxPoint x="240" y="-1550" />
            </Array>
          </mxGeometry>
        </mxCell>
        <mxCell id="8qSeLk364I0TMnnldrpM-10" value="" style="edgeStyle=orthogonalEdgeStyle;rounded=0;orthogonalLoop=1;jettySize=auto;html=1;" edge="1" parent="1" source="8qSeLk364I0TMnnldrpM-2" target="8qSeLk364I0TMnnldrpM-8">
          <mxGeometry relative="1" as="geometry">
            <Array as="points">
              <mxPoint x="610" y="-1550" />
            </Array>
          </mxGeometry>
        </mxCell>
        <mxCell id="8qSeLk364I0TMnnldrpM-2" value="included" style="strokeWidth=2;html=1;shape=mxgraph.flowchart.decision;whiteSpace=wrap;" vertex="1" parent="1">
          <mxGeometry x="350" y="-1600" width="100" height="100" as="geometry" />
        </mxCell>
        <mxCell id="8qSeLk364I0TMnnldrpM-5" value="" style="edgeStyle=orthogonalEdgeStyle;rounded=0;orthogonalLoop=1;jettySize=auto;html=1;" edge="1" parent="1" source="8qSeLk364I0TMnnldrpM-4" target="8qSeLk364I0TMnnldrpM-2">
          <mxGeometry relative="1" as="geometry" />
        </mxCell>
        <mxCell id="8qSeLk364I0TMnnldrpM-4" value="Start&lt;div&gt;Guess a letter?&lt;/div&gt;" style="rounded=0;whiteSpace=wrap;html=1;" vertex="1" parent="1">
          <mxGeometry x="340" y="-1700" width="120" height="60" as="geometry" />
        </mxCell>
        <mxCell id="8qSeLk364I0TMnnldrpM-15" value="" style="edgeStyle=orthogonalEdgeStyle;rounded=0;orthogonalLoop=1;jettySize=auto;html=1;exitX=0.5;exitY=1;exitDx=0;exitDy=0;" edge="1" parent="1" source="8qSeLk364I0TMnnldrpM-19" target="8qSeLk364I0TMnnldrpM-14">
          <mxGeometry relative="1" as="geometry">
            <Array as="points">
              <mxPoint x="240" y="-1310" />
            </Array>
          </mxGeometry>
        </mxCell>
        <mxCell id="8qSeLk364I0TMnnldrpM-20" value="" style="edgeStyle=orthogonalEdgeStyle;rounded=0;orthogonalLoop=1;jettySize=auto;html=1;" edge="1" parent="1" source="8qSeLk364I0TMnnldrpM-6" target="8qSeLk364I0TMnnldrpM-19">
          <mxGeometry relative="1" as="geometry" />
        </mxCell>
        <mxCell id="8qSeLk364I0TMnnldrpM-6" value="put it in the word" style="rounded=0;whiteSpace=wrap;html=1;" vertex="1" parent="1">
          <mxGeometry x="180" y="-1530" width="120" height="60" as="geometry" />
        </mxCell>
        <mxCell id="8qSeLk364I0TMnnldrpM-23" value="" style="edgeStyle=orthogonalEdgeStyle;rounded=0;orthogonalLoop=1;jettySize=auto;html=1;" edge="1" parent="1" source="8qSeLk364I0TMnnldrpM-8" target="8qSeLk364I0TMnnldrpM-21">
          <mxGeometry relative="1" as="geometry" />
        </mxCell>
        <mxCell id="8qSeLk364I0TMnnldrpM-8" value="add an element to hangman" style="rounded=0;whiteSpace=wrap;html=1;" vertex="1" parent="1">
          <mxGeometry x="540" y="-1530" width="120" height="60" as="geometry" />
        </mxCell>
        <mxCell id="8qSeLk364I0TMnnldrpM-14" value="Guess another" style="shape=parallelogram;perimeter=parallelogramPerimeter;whiteSpace=wrap;html=1;fixedSize=1;rounded=0;" vertex="1" parent="1">
          <mxGeometry x="350" y="-1340" width="120" height="60" as="geometry" />
        </mxCell>
        <mxCell id="8qSeLk364I0TMnnldrpM-18" value="" style="endArrow=classic;html=1;rounded=0;exitX=0.5;exitY=1;exitDx=0;exitDy=0;" edge="1" parent="1" source="8qSeLk364I0TMnnldrpM-14">
          <mxGeometry width="50" height="50" relative="1" as="geometry">
            <mxPoint x="390" y="-1440" as="sourcePoint" />
            <mxPoint x="400" y="-1620" as="targetPoint" />
            <Array as="points">
              <mxPoint x="410" y="-1220" />
              <mxPoint x="790" y="-1220" />
              <mxPoint x="790" y="-1510" />
              <mxPoint x="790" y="-1620" />
            </Array>
          </mxGeometry>
        </mxCell>
        <mxCell id="8qSeLk364I0TMnnldrpM-26" value="" style="edgeStyle=orthogonalEdgeStyle;rounded=0;orthogonalLoop=1;jettySize=auto;html=1;" edge="1" parent="1" source="8qSeLk364I0TMnnldrpM-19" target="8qSeLk364I0TMnnldrpM-25">
          <mxGeometry relative="1" as="geometry" />
        </mxCell>
        <mxCell id="8qSeLk364I0TMnnldrpM-19" value="fill &amp;lt; len" style="rhombus;whiteSpace=wrap;html=1;" vertex="1" parent="1">
          <mxGeometry x="200" y="-1450" width="80" height="80" as="geometry" />
        </mxCell>
        <mxCell id="8qSeLk364I0TMnnldrpM-28" value="" style="edgeStyle=orthogonalEdgeStyle;rounded=0;orthogonalLoop=1;jettySize=auto;html=1;" edge="1" parent="1" source="8qSeLk364I0TMnnldrpM-21" target="8qSeLk364I0TMnnldrpM-27">
          <mxGeometry relative="1" as="geometry" />
        </mxCell>
        <mxCell id="8qSeLk364I0TMnnldrpM-21" value="fill &amp;lt; len" style="rhombus;whiteSpace=wrap;html=1;" vertex="1" parent="1">
          <mxGeometry x="560" y="-1440" width="80" height="80" as="geometry" />
        </mxCell>
        <mxCell id="8qSeLk364I0TMnnldrpM-24" value="" style="endArrow=classic;html=1;rounded=0;exitX=0.5;exitY=1;exitDx=0;exitDy=0;" edge="1" parent="1" source="8qSeLk364I0TMnnldrpM-21" target="8qSeLk364I0TMnnldrpM-14">
          <mxGeometry width="50" height="50" relative="1" as="geometry">
            <mxPoint x="390" y="-1340" as="sourcePoint" />
            <mxPoint x="440" y="-1390" as="targetPoint" />
            <Array as="points">
              <mxPoint x="600" y="-1310" />
            </Array>
          </mxGeometry>
        </mxCell>
        <mxCell id="8qSeLk364I0TMnnldrpM-25" value="win" style="rounded=0;whiteSpace=wrap;html=1;" vertex="1" parent="1">
          <mxGeometry x="20" y="-1440" width="120" height="60" as="geometry" />
        </mxCell>
        <mxCell id="8qSeLk364I0TMnnldrpM-27" value="lose" style="rounded=0;whiteSpace=wrap;html=1;" vertex="1" parent="1">
          <mxGeometry x="660" y="-1430" width="120" height="60" as="geometry" />
        </mxCell>
      </root>
    </mxGraphModel>
  </diagram>
</mxfile>
